<svg width="512" height="512" viewBox="0 0 512 512" fill="none" xmlns="http://www.w3.org/2000/svg">
<g clip-path="url(#clip0)">
<path d="M325.762 281.813C338.092 285.76 348.759 290.688 358.679 296.747L358.018 296.363C369.303 301.376 379.052 307.243 387.948 314.133L387.628 313.899C388.055 315.2 388.311 316.672 388.311 318.229C388.311 318.464 388.311 318.677 388.29 318.912V318.891C387.97 328.043 385.943 336.64 382.508 344.469L382.679 344.021C377.751 353.899 369.538 361.515 359.49 365.568L359.191 365.675C349.399 370.859 337.836 374.059 325.57 374.443H325.442C301.975 371.328 280.77 364.117 261.698 353.493L262.615 353.963C240.812 343.979 222.188 330.859 206.38 314.944L206.359 314.923C188.78 296.64 172.674 276.629 158.402 255.317L157.399 253.739C143.831 236.053 135.191 213.931 133.932 189.845L133.911 189.568V186.923C134.594 166.123 143.895 147.605 158.316 134.72L158.38 134.656C162.796 130.261 168.855 127.509 175.554 127.381H175.575C177.73 127.445 179.799 127.616 181.804 127.915L181.527 127.872C183.383 128.149 185.538 128.32 187.756 128.363H187.82C188.226 128.32 188.674 128.299 189.143 128.299C191.916 128.299 194.498 129.131 196.652 130.539L196.61 130.517C198.892 133.035 200.642 136.085 201.687 139.435L201.73 139.605C203.493 144.014 207.134 153.714 212.652 168.704C215.532 175.403 218.348 183.659 220.61 192.149L220.908 193.493C219.287 201.195 215.191 207.744 209.538 212.459L209.474 212.501C201.865 220.551 198.06 225.671 198.06 227.861C198.146 229.739 198.786 231.445 199.788 232.853L199.767 232.832C208.407 250.517 219.735 265.536 233.388 278.037L233.495 278.144C247.895 291.136 264.343 302.293 282.178 310.997L283.436 311.552C285.506 312.896 287.98 313.749 290.668 313.877H290.711C294.025 313.877 299.984 308.53 308.588 297.835C317.193 287.14 322.91 281.792 325.74 281.792L325.762 281.813ZM258.626 457.088H259.095C288.044 457.088 315.564 451.008 340.46 440.043L339.159 440.555C389.42 419.349 428.61 380.16 449.303 331.243L449.815 329.899C460.268 306.155 466.348 278.464 466.348 249.365C466.348 220.267 460.268 192.576 449.303 167.509L449.815 168.832C428.61 118.571 389.42 79.3813 340.503 58.688L339.159 58.176C315.415 47.7227 287.724 41.6427 258.626 41.6427C229.527 41.6427 201.836 47.7227 176.77 58.688L178.092 58.176C127.831 79.3813 88.6417 118.571 67.9483 167.488L67.4363 168.832C56.983 192.661 50.903 220.437 50.903 249.621C50.903 295.296 65.7937 337.515 90.9883 371.648L90.583 371.093L64.4497 448.171L144.492 422.699C176.279 444.245 215.468 457.088 257.666 457.088H258.668H258.626ZM258.626 0H259.33C294.06 0 327.084 7.296 356.93 20.4587L355.372 19.84C415.639 45.376 462.636 92.3733 487.554 151.019L488.172 152.64C500.716 181.163 508.012 214.421 508.012 249.387C508.012 284.352 500.716 317.611 487.554 347.712L488.172 346.133C462.636 406.4 415.639 453.397 356.994 478.315L355.372 478.933C327.063 491.477 294.039 498.773 259.308 498.773C259.074 498.773 258.818 498.773 258.583 498.773H258.626C258.284 498.773 257.9 498.773 257.495 498.773C213.57 498.773 172.332 487.232 136.663 467.029L137.879 467.669L-0.0410156 512L44.951 378.048C22.5297 341.483 9.23898 297.216 9.23898 249.835C9.23898 214.72 16.535 181.312 29.6977 151.04L29.079 152.64C54.615 92.3733 101.612 45.376 160.258 20.4587L161.879 19.84C190.188 7.296 223.212 0 257.943 0H258.647H258.604L258.626 0Z" fill="black"/>
</g>
<defs>
<clipPath id="clip0">
<rect width="512" height="512" fill="white"/>
</clipPath>
</defs>
</svg>
